<?xml version="1.0" standalone="no"?>
<!DOCTYPE svg PUBLIC "-//W3C//DTD SVG 20010904//EN"
 "http://www.w3.org/TR/2001/REC-SVG-20010904/DTD/svg10.dtd">
<svg version="1.0" xmlns="http://www.w3.org/2000/svg"
 width="256.000000pt" height="256.000000pt" viewBox="0 0 256.000000 256.000000"
 preserveAspectRatio="xMidYMid meet">
<metadata>
Created by potrace 1.14, written by Peter Selinger 2001-2017
</metadata>
<g transform="translate(0.000000,256.000000) scale(0.100000,-0.100000)"
fill="#000000" stroke="none">
<path d="M0 1280 l0 -1280 1280 0 1280 0 0 1280 0 1280 -1280 0 -1280 0 0
-1280z m1120 395 l0 -394 58 -3 57 -3 3 -62 3 -63 -61 0 -60 0 0 -240 0 -240
-60 0 -60 0 0 240 0 240 -269 0 c-342 0 -315 -15 -319 180 -3 121 -1 145 14
168 20 30 469 540 492 560 10 8 49 12 109 12 l93 0 0 -395z m370 155 l0 -240
268 0 c226 0 271 -2 290 -16 21 -15 22 -21 22 -173 l0 -157 -252 -285 -253
-284 -97 -3 -98 -3 0 396 0 395 -60 0 -60 0 0 65 0 65 60 0 60 0 0 240 0 240
60 0 60 0 0 -240z"/>
<path d="M750 1684 l-215 -244 -3 -80 -3 -80 236 0 235 0 0 325 c0 303 -1 325
-17 324 -10 0 -112 -107 -233 -245z"/>
<path d="M1490 1130 c0 -211 4 -330 10 -330 5 0 111 114 235 253 l224 252 1
78 0 77 -235 0 -235 0 0 -330z"/>
</g>
</svg>
