<svg width="1024" height="1024" viewBox="0 0 1024 1024" fill="none" xmlns="http://www.w3.org/2000/svg">
<g clip-path="url(#clip0_2_2)">
<mask id="mask0_2_2" style="mask-type:luminance" maskUnits="userSpaceOnUse" x="0" y="0" width="1024" height="1024">
<path d="M1024 0H0V1024H1024V0Z" fill="white"/>
</mask>
<g mask="url(#mask0_2_2)">
<path d="M1024 0H0V1024H1024V0Z" fill="white"/>
<path fill-rule="evenodd" clip-rule="evenodd" d="M728.383 876.106C732.244 873.773 736.067 871.378 739.851 868.921C743.635 866.464 747.379 863.947 751.083 861.369C754.786 858.792 758.448 856.155 762.067 853.458C765.686 850.762 769.261 848.008 772.792 845.196C776.323 842.384 779.809 839.516 783.248 836.591C786.687 833.666 790.079 830.687 793.423 827.652C796.767 824.618 800.061 821.53 803.306 818.389C806.551 815.248 809.745 812.056 812.888 808.811C816.031 805.567 819.121 802.273 822.159 798.928C825.196 795.584 828.179 792.192 831.108 788.751C834.037 785.31 836.91 781.823 839.727 778.289C842.544 774.756 845.304 771.178 848.007 767.555C850.71 763.932 853.354 760.266 855.939 756.557C858.524 752.849 861.05 749.1 863.515 745.309C865.981 741.519 868.385 737.69 870.728 733.822C873.071 729.954 875.351 726.049 877.569 722.108C879.787 718.166 881.941 714.189 884.031 710.178C886.122 706.167 888.148 702.123 890.109 698.046C892.07 693.969 893.966 689.861 895.795 685.723C897.625 681.585 899.388 677.418 901.084 673.223C902.781 669.028 904.409 664.806 905.97 660.558C907.531 656.31 909.024 652.038 910.449 647.742C911.874 643.446 913.229 639.128 914.515 634.788C915.801 630.447 917.017 626.087 918.164 621.708C919.311 617.329 920.387 612.932 921.393 608.518C922.399 604.104 923.334 599.675 924.199 595.23C925.063 590.785 925.856 586.328 926.577 581.858C927.299 577.388 927.949 572.907 928.527 568.416C929.105 563.925 929.611 559.425 930.045 554.918C930.479 550.411 930.841 545.897 931.131 541.378C931.42 536.859 931.638 532.336 931.783 527.81C931.928 523.283 932 518.756 932 514.227C932 507.317 931.831 500.411 931.494 493.51C931.157 486.608 930.651 479.719 929.977 472.842C929.304 465.965 928.463 459.109 927.454 452.274C926.445 445.439 925.271 438.632 923.93 431.855C922.589 425.078 921.083 418.338 919.413 411.635C917.743 404.932 915.91 398.274 913.915 391.661C911.92 385.048 909.764 378.489 907.448 371.983C905.133 365.477 902.66 359.032 900.029 352.648C897.399 346.264 894.614 339.949 891.675 333.702C888.736 327.455 885.647 321.285 882.407 315.191C879.166 309.097 875.779 303.086 872.246 297.159C868.712 291.232 865.036 285.396 861.217 279.65C857.398 273.905 853.442 268.257 849.347 262.707C845.252 257.157 841.025 251.711 836.664 246.369C832.303 241.028 827.815 235.797 823.199 230.677C818.583 225.557 813.845 220.554 808.985 215.668C804.124 210.781 799.148 206.018 794.055 201.378C788.962 196.737 783.758 192.225 778.445 187.841C773.132 183.458 767.715 179.208 762.194 175.091C756.673 170.975 751.054 166.997 745.339 163.158C739.624 159.319 733.819 155.623 727.923 152.071C722.027 148.518 716.048 145.113 709.987 141.856C703.924 138.599 697.786 135.493 691.573 132.538C685.359 129.584 679.077 126.785 672.727 124.14C666.376 121.496 659.965 119.01 653.494 116.682C647.022 114.354 640.497 112.187 633.92 110.181C627.342 108.175 620.719 106.333 614.052 104.654C607.384 102.975 600.679 101.461 593.938 100.113C587.197 98.7649 580.426 97.5839 573.627 96.57C566.828 95.5561 560.008 94.7104 553.167 94.0331C546.326 93.3558 539.473 92.8477 532.608 92.5086C525.743 92.1695 518.873 92 512 92C505.127 92 498.257 92.1695 491.392 92.5086C484.527 92.8477 477.674 93.3558 470.833 94.0331C463.992 94.7104 457.172 95.5561 450.373 96.57C443.574 97.5839 436.803 98.7649 430.062 100.113C423.321 101.461 416.616 102.975 409.948 104.654C403.281 106.333 396.658 108.175 390.08 110.181C383.503 112.187 376.978 114.354 370.506 116.682C364.035 119.01 357.624 121.496 351.273 124.14C344.922 126.785 338.64 129.584 332.427 132.538C326.213 135.493 320.075 138.599 314.013 141.856C307.951 145.113 301.972 148.518 296.077 152.071C290.181 155.623 284.375 159.319 278.66 163.158C272.945 166.997 267.327 170.975 261.806 175.091C256.285 179.208 250.868 183.458 245.555 187.841C240.242 192.225 235.038 196.737 229.945 201.378C224.852 206.018 219.876 210.781 215.015 215.668C210.155 220.554 205.417 225.557 200.801 230.677C196.184 235.797 191.696 241.028 187.336 246.369C182.975 251.711 178.747 257.157 174.653 262.707C170.558 268.257 166.602 273.905 162.783 279.65C158.964 285.396 155.288 291.232 151.754 297.159C148.22 303.086 144.833 309.097 141.593 315.191C138.353 321.285 135.263 327.455 132.325 333.702C129.386 339.949 126.601 346.264 123.971 352.648C121.34 359.032 118.867 365.477 116.551 371.983C114.236 378.49 112.08 385.049 110.085 391.661C108.09 398.274 106.257 404.932 104.587 411.635C102.917 418.338 101.411 425.078 100.07 431.855C98.7292 438.632 97.5544 445.439 96.5459 452.274C95.5373 459.109 94.6961 465.965 94.0224 472.842C93.3487 479.719 92.8432 486.608 92.5059 493.51C92.1686 500.411 92 507.317 92 514.227C92 518.754 92.0724 523.28 92.2172 527.805C92.362 532.33 92.5791 536.851 92.8686 541.368C93.158 545.885 93.5197 550.397 93.9535 554.903C94.3873 559.409 94.893 563.907 95.4708 568.396C96.0485 572.886 96.6978 577.365 97.4189 581.834C98.1399 586.302 98.9322 590.758 99.7958 595.201C100.659 599.644 101.594 604.071 102.599 608.484C103.604 612.897 104.68 617.292 105.826 621.67C106.972 626.048 108.187 630.406 109.473 634.745C110.758 639.084 112.112 643.4 113.536 647.695C114.959 651.99 116.451 656.26 118.011 660.507C119.571 664.754 121.199 668.974 122.894 673.168C124.589 677.362 126.351 681.527 128.179 685.664C130.007 689.801 131.901 693.908 133.861 697.984C135.821 702.059 137.845 706.102 139.934 710.113C142.024 714.123 144.176 718.098 146.392 722.039C148.609 725.98 150.888 729.884 153.229 733.751C155.57 737.618 157.973 741.446 160.436 745.235C162.9 749.024 165.424 752.773 168.007 756.481C170.591 760.188 173.233 763.853 175.934 767.475C178.635 771.098 181.393 774.676 184.208 778.209C187.024 781.742 189.895 785.228 192.822 788.668C195.749 792.109 198.73 795.501 201.765 798.845C204.801 802.188 207.889 805.482 211.03 808.726C214.171 811.97 217.362 815.162 220.605 818.303C223.848 821.444 227.141 824.532 230.483 827.566C233.824 830.601 237.214 833.58 240.651 836.505C244.088 839.43 247.571 842.298 251.1 845.11C254.629 847.922 258.202 850.676 261.819 853.373C265.436 856.07 269.095 858.707 272.796 861.285C276.497 863.864 280.239 866.381 284.021 868.838C287.803 871.295 291.623 873.691 295.482 876.025L275 610.916L289.135 612.535C275.361 611.006 261.596 609.335 247.841 607.521L247.822 607.518C232.599 605.51 221.237 592.76 221.237 577.685C221.237 561.06 234.969 547.583 251.908 547.583C253.274 547.583 254.639 547.672 255.993 547.851C425.134 570.162 595.787 570.165 767.954 547.86L768.089 547.842C769.42 547.669 770.761 547.583 772.105 547.583C789.044 547.583 802.776 561.06 802.776 577.685C802.776 592.787 791.373 605.552 776.118 607.528L776.087 607.531C766.155 608.819 756.227 610.035 746.304 611.178L748.973 611.417L728.383 876.106ZM627.541 920.164L650.893 619.962C622.541 621.913 594.228 623.274 565.953 624.043V932.957C576.362 931.601 586.706 929.856 596.985 927.721C607.264 925.586 617.45 923.067 627.541 920.164ZM468.888 934.225V624.356C436.871 623.689 404.903 622.259 372.986 620.066L396.328 920.126C408.191 923.543 420.182 926.428 432.299 928.783C444.416 931.137 456.612 932.951 468.888 934.225ZM456.599 271.693C456.599 273.028 456.642 274.362 456.728 275.694C456.814 277.026 456.943 278.354 457.114 279.677C457.285 281.001 457.499 282.317 457.755 283.626C458.011 284.935 458.309 286.233 458.649 287.522C458.989 288.811 459.37 290.087 459.792 291.35C460.213 292.613 460.675 293.86 461.178 295.092C461.68 296.323 462.221 297.536 462.802 298.731C463.382 299.926 464 301.1 464.656 302.253L438.328 329.415C437.211 328.752 436.074 328.128 434.917 327.542C433.76 326.955 432.586 326.408 431.395 325.901C430.203 325.394 428.996 324.928 427.775 324.501C426.553 324.075 425.319 323.69 424.073 323.347C422.827 323.004 421.571 322.704 420.306 322.445C419.041 322.186 417.769 321.97 416.49 321.797C415.211 321.624 413.927 321.495 412.64 321.408C411.353 321.321 410.064 321.278 408.773 321.278C407.807 321.278 406.841 321.302 405.876 321.351C404.911 321.4 403.947 321.473 402.986 321.57C402.024 321.667 401.065 321.788 400.11 321.934C399.154 322.079 398.202 322.249 397.254 322.442C396.306 322.635 395.363 322.853 394.426 323.094C393.489 323.335 392.558 323.599 391.633 323.887C390.708 324.175 389.791 324.486 388.881 324.82C387.972 325.155 387.07 325.512 386.177 325.891C385.284 326.27 384.401 326.672 383.528 327.096C382.654 327.52 381.791 327.966 380.939 328.434C380.087 328.901 379.247 329.39 378.418 329.9C377.589 330.41 376.772 330.94 375.969 331.491C375.166 332.042 374.376 332.613 373.6 333.204C372.823 333.795 372.062 334.405 371.315 335.034C370.568 335.663 369.836 336.311 369.12 336.977C368.404 337.643 367.704 338.327 367.021 339.028C366.338 339.729 365.672 340.447 365.023 341.182C364.374 341.917 363.743 342.668 363.13 343.435C362.517 344.202 361.922 344.983 361.347 345.78C360.771 346.577 360.215 347.387 359.678 348.212C359.141 349.037 358.625 349.874 358.128 350.725C357.631 351.576 357.154 352.438 356.699 353.313C356.244 354.188 355.809 355.073 355.396 355.97C354.983 356.867 354.591 357.773 354.222 358.689C353.852 359.606 353.504 360.531 353.179 361.464C352.853 362.398 352.55 363.34 352.27 364.289C351.989 365.238 351.732 366.193 351.497 367.156C351.262 368.118 351.05 369.085 350.862 370.058C350.673 371.031 350.508 372.008 350.366 372.989C350.224 373.97 350.106 374.954 350.011 375.941C349.916 376.928 349.845 377.916 349.798 378.907C349.751 379.898 349.727 380.889 349.727 381.881C349.727 383.218 349.77 384.554 349.856 385.889C349.943 387.223 350.072 388.553 350.243 389.878C350.415 391.204 350.63 392.522 350.887 393.833C351.144 395.144 351.443 396.445 351.784 397.736C352.125 399.027 352.507 400.304 352.93 401.569C353.353 402.834 353.817 404.083 354.32 405.316C354.824 406.549 355.367 407.764 355.949 408.961C356.532 410.157 357.152 411.332 357.81 412.486L342.183 428.608C341.065 427.943 339.927 427.317 338.769 426.729C337.611 426.141 336.435 425.593 335.242 425.084C334.049 424.575 332.84 424.107 331.617 423.68C330.394 423.253 329.158 422.867 327.911 422.523C326.663 422.179 325.405 421.877 324.138 421.617C322.871 421.358 321.597 421.141 320.316 420.968C319.035 420.795 317.75 420.664 316.461 420.577C315.172 420.49 313.881 420.447 312.589 420.447C311.622 420.447 310.656 420.471 309.691 420.52C308.726 420.569 307.762 420.642 306.801 420.739C305.839 420.836 304.88 420.957 303.925 421.103C302.969 421.248 302.017 421.418 301.069 421.611C300.121 421.804 299.178 422.022 298.241 422.263C297.304 422.504 296.373 422.768 295.448 423.056C294.523 423.344 293.606 423.655 292.696 423.989C291.787 424.324 290.885 424.681 289.992 425.06C289.099 425.439 288.216 425.841 287.343 426.265C286.47 426.689 285.607 427.135 284.754 427.603C283.902 428.07 283.062 428.559 282.233 429.069C281.404 429.579 280.587 430.109 279.784 430.66C278.981 431.211 278.191 431.782 277.415 432.373C276.638 432.964 275.877 433.574 275.13 434.203C274.383 434.832 273.651 435.48 272.935 436.146C272.219 436.812 271.519 437.496 270.836 438.197C270.153 438.898 269.487 439.616 268.838 440.351C268.189 441.086 267.558 441.837 266.945 442.604C266.332 443.371 265.737 444.152 265.162 444.949C264.586 445.746 264.03 446.556 263.493 447.381C262.956 448.206 262.44 449.043 261.943 449.894C261.446 450.745 260.969 451.607 260.514 452.482C260.059 453.357 259.624 454.242 259.211 455.139C258.798 456.036 258.406 456.942 258.037 457.858C257.667 458.775 257.319 459.7 256.994 460.633C256.668 461.567 256.365 462.509 256.085 463.458C255.804 464.407 255.547 465.363 255.312 466.325C255.077 467.287 254.865 468.254 254.677 469.227C254.488 470.2 254.323 471.177 254.181 472.158C254.039 473.139 253.921 474.123 253.826 475.11C253.731 476.097 253.66 477.086 253.613 478.076C253.566 479.067 253.542 480.058 253.542 481.05C253.542 482.042 253.566 483.033 253.613 484.024C253.66 485.015 253.731 486.003 253.826 486.99C253.921 487.977 254.039 488.961 254.181 489.942C254.323 490.923 254.488 491.9 254.677 492.873C254.865 493.846 255.077 494.813 255.312 495.775C255.547 496.738 255.804 497.693 256.085 498.642C256.365 499.591 256.668 500.533 256.994 501.467C257.319 502.4 257.667 503.325 258.037 504.242C258.406 505.158 258.798 506.064 259.211 506.961C259.624 507.858 260.059 508.743 260.514 509.618C260.969 510.493 261.446 511.355 261.943 512.206C262.44 513.057 262.956 513.894 263.493 514.719C264.03 515.544 264.586 516.354 265.162 517.151C265.737 517.948 266.332 518.729 266.945 519.496C267.558 520.263 268.189 521.014 268.838 521.749C269.487 522.484 270.153 523.202 270.836 523.903C271.519 524.604 272.219 525.288 272.935 525.954C273.651 526.62 274.383 527.268 275.13 527.897C275.877 528.526 276.638 529.136 277.415 529.727C278.191 530.318 278.981 530.889 279.784 531.44C280.587 531.991 281.404 532.521 282.233 533.031C283.062 533.541 283.902 534.03 284.754 534.497C285.607 534.965 286.47 535.411 287.343 535.835C288.216 536.259 289.099 536.661 289.992 537.04C290.885 537.42 291.787 537.777 292.696 538.111C293.606 538.445 294.523 538.756 295.448 539.044C296.373 539.332 297.304 539.596 298.241 539.837C299.178 540.078 300.121 540.296 301.069 540.489C302.017 540.682 302.969 540.852 303.925 540.997C304.88 541.143 305.839 541.265 306.801 541.362C307.762 541.459 308.726 541.531 309.691 541.58C310.656 541.629 311.622 541.653 312.589 541.653C313.555 541.653 314.521 541.629 315.486 541.58C316.451 541.531 317.415 541.459 318.376 541.362C319.338 541.265 320.297 541.143 321.252 540.997C322.208 540.852 323.16 540.682 324.108 540.489C325.056 540.296 325.999 540.078 326.936 539.837C327.873 539.596 328.804 539.332 329.729 539.044C330.654 538.756 331.571 538.445 332.481 538.111C333.39 537.777 334.292 537.42 335.185 537.04C336.078 536.661 336.961 536.259 337.834 535.835C338.707 535.411 339.57 534.965 340.423 534.497C341.275 534.03 342.115 533.541 342.944 533.031C343.773 532.521 344.59 531.991 345.393 531.44C346.196 530.889 346.986 530.318 347.762 529.727C348.539 529.136 349.3 528.526 350.047 527.897C350.794 527.268 351.526 526.62 352.242 525.954C352.958 525.288 353.658 524.604 354.341 523.903C355.024 523.202 355.69 522.484 356.339 521.749C356.988 521.014 357.619 520.263 358.232 519.496C358.845 518.729 359.44 517.948 360.015 517.151C360.591 516.354 361.147 515.544 361.684 514.719C362.221 513.894 362.737 513.057 363.234 512.206C363.731 511.355 364.208 510.493 364.663 509.618C365.118 508.743 365.553 507.858 365.966 506.961C366.379 506.064 366.771 505.158 367.14 504.242C367.51 503.325 367.858 502.4 368.183 501.467C368.509 500.533 368.812 499.591 369.092 498.642C369.373 497.693 369.63 496.738 369.865 495.775C370.1 494.813 370.312 493.846 370.5 492.873C370.689 491.9 370.854 490.923 370.996 489.942C371.138 488.961 371.256 487.977 371.351 486.99C371.446 486.003 371.517 485.015 371.564 484.024C371.611 483.033 371.635 482.042 371.635 481.05C371.635 480.225 371.619 479.4 371.586 478.575C371.553 477.75 371.503 476.927 371.438 476.105C371.373 475.282 371.291 474.461 371.192 473.642C371.094 472.823 370.98 472.007 370.849 471.192C370.718 470.378 370.571 469.567 370.408 468.759C370.245 467.95 370.066 467.146 369.871 466.345C369.676 465.545 369.465 464.749 369.238 463.957C369.011 463.165 368.768 462.378 368.51 461.597C368.252 460.815 367.979 460.039 367.69 459.269C367.401 458.499 367.096 457.735 366.777 456.978C366.458 456.221 366.123 455.47 365.774 454.727C365.425 453.984 365.061 453.248 364.683 452.52C364.304 451.792 363.911 451.072 363.504 450.36C363.097 449.649 362.675 448.946 362.24 448.252C361.805 447.558 361.357 446.873 360.894 446.198C360.431 445.523 359.956 444.858 359.467 444.203L373.08 430.158C373.716 430.653 374.362 431.135 375.017 431.604C375.672 432.073 376.337 432.528 377.01 432.969C377.683 433.41 378.365 433.836 379.055 434.249C379.745 434.662 380.443 435.06 381.149 435.443C381.855 435.826 382.568 436.195 383.288 436.549C384.009 436.902 384.736 437.241 385.47 437.565C386.203 437.888 386.943 438.196 387.689 438.489C388.435 438.782 389.187 439.059 389.944 439.32C390.701 439.581 391.462 439.827 392.229 440.057C392.996 440.286 393.767 440.5 394.542 440.698C395.317 440.895 396.095 441.077 396.878 441.242C397.66 441.407 398.445 441.555 399.233 441.688C400.021 441.821 400.812 441.937 401.605 442.036C402.398 442.135 403.192 442.218 403.988 442.285C404.784 442.352 405.581 442.402 406.379 442.435C407.177 442.468 407.975 442.484 408.773 442.484C409.579 442.484 410.385 442.467 411.19 442.434C411.995 442.4 412.799 442.349 413.602 442.281C414.405 442.214 415.207 442.129 416.007 442.028C416.806 441.927 417.604 441.809 418.399 441.674C419.194 441.539 419.986 441.388 420.775 441.219C421.564 441.051 422.349 440.867 423.131 440.666C423.912 440.465 424.689 440.247 425.462 440.013C426.235 439.78 427.003 439.53 427.766 439.264C428.529 438.998 429.287 438.716 430.038 438.418C430.79 438.12 431.536 437.806 432.275 437.477C433.014 437.148 433.747 436.804 434.472 436.444C435.197 436.084 435.915 435.709 436.626 435.319C437.337 434.928 438.039 434.523 438.733 434.104C439.428 433.684 440.113 433.25 440.79 432.802C441.467 432.353 442.135 431.891 442.794 431.414C443.453 430.937 444.101 430.447 444.74 429.944L464.656 450.491C464 451.644 463.382 452.817 462.801 454.012C462.221 455.207 461.68 456.42 461.178 457.652C460.675 458.883 460.213 460.13 459.792 461.393C459.37 462.656 458.989 463.932 458.649 465.221C458.309 466.51 458.011 467.808 457.755 469.117C457.499 470.426 457.285 471.743 457.114 473.066C456.943 474.389 456.814 475.717 456.728 477.049C456.642 478.382 456.599 479.715 456.599 481.05C456.599 482.042 456.623 483.033 456.67 484.024C456.718 485.015 456.789 486.003 456.884 486.99C456.979 487.977 457.097 488.961 457.238 489.942C457.38 490.923 457.545 491.9 457.734 492.873C457.923 493.846 458.134 494.813 458.369 495.775C458.604 496.738 458.861 497.693 459.142 498.642C459.423 499.591 459.726 500.533 460.051 501.467C460.376 502.4 460.724 503.325 461.094 504.242C461.464 505.158 461.855 506.064 462.268 506.961C462.681 507.858 463.116 508.743 463.571 509.618C464.027 510.493 464.503 511.355 465 512.206C465.497 513.057 466.013 513.894 466.55 514.719C467.087 515.544 467.644 516.354 468.219 517.151C468.795 517.948 469.389 518.729 470.002 519.496C470.615 520.263 471.246 521.014 471.895 521.749C472.544 522.484 473.211 523.202 473.894 523.903C474.577 524.604 475.277 525.288 475.993 525.954C476.709 526.62 477.44 527.268 478.187 527.897C478.934 528.526 479.695 529.136 480.472 529.727C481.248 530.318 482.038 530.889 482.841 531.44C483.644 531.991 484.461 532.521 485.29 533.031C486.119 533.541 486.959 534.03 487.811 534.497C488.664 534.965 489.527 535.411 490.4 535.835C491.273 536.259 492.157 536.661 493.05 537.04C493.943 537.42 494.844 537.777 495.754 538.111C496.663 538.445 497.58 538.756 498.505 539.044C499.43 539.332 500.361 539.596 501.299 539.837C502.236 540.078 503.179 540.296 504.126 540.489C505.074 540.682 506.026 540.852 506.982 540.997C507.938 541.143 508.897 541.265 509.858 541.362C510.82 541.459 511.783 541.531 512.748 541.58C513.713 541.629 514.679 541.653 515.646 541.653C516.612 541.653 517.578 541.629 518.543 541.58C519.508 541.531 520.472 541.459 521.433 541.362C522.395 541.265 523.354 541.143 524.31 540.997C525.265 540.852 526.217 540.682 527.165 540.489C528.113 540.296 529.056 540.078 529.993 539.837C530.93 539.596 531.861 539.332 532.786 539.044C533.711 538.756 534.628 538.445 535.538 538.111C536.448 537.777 537.349 537.42 538.242 537.04C539.135 536.661 540.018 536.259 540.891 535.835C541.765 535.411 542.628 534.965 543.48 534.497C544.332 534.03 545.173 533.541 546.002 533.031C546.831 532.521 547.647 531.991 548.45 531.44C549.253 530.889 550.043 530.318 550.82 529.727C551.596 529.136 552.357 528.526 553.104 527.897C553.851 527.268 554.583 526.62 555.299 525.954C556.015 525.288 556.715 524.604 557.398 523.903C558.081 523.202 558.747 522.484 559.396 521.749C560.045 521.014 560.676 520.263 561.289 519.496C561.902 518.729 562.497 517.948 563.072 517.151C563.648 516.354 564.204 515.544 564.741 514.719C565.278 513.894 565.795 513.057 566.292 512.206C566.789 511.355 567.265 510.493 567.72 509.618C568.175 508.743 568.61 507.858 569.023 506.961C569.436 506.064 569.828 505.158 570.198 504.242C570.567 503.325 570.915 502.4 571.241 501.467C571.566 500.533 571.869 499.591 572.15 498.642C572.43 497.693 572.688 496.738 572.923 495.775C573.158 494.813 573.369 493.846 573.558 492.873C573.746 491.9 573.911 490.923 574.053 489.942C574.195 488.961 574.313 487.977 574.408 486.99C574.503 486.003 574.574 485.015 574.621 484.024C574.668 483.033 574.692 482.042 574.692 481.05C574.692 480.219 574.675 479.387 574.642 478.556C574.609 477.725 574.559 476.895 574.492 476.066C574.425 475.237 574.342 474.41 574.243 473.585C574.143 472.76 574.027 471.937 573.894 471.116C573.761 470.296 573.611 469.479 573.446 468.665C573.281 467.85 573.099 467.04 572.9 466.234C572.702 465.427 572.488 464.625 572.258 463.828C572.027 463.031 571.781 462.238 571.519 461.451C571.257 460.664 570.979 459.883 570.686 459.108C570.393 458.333 570.084 457.564 569.76 456.802C569.436 456.04 569.097 455.285 568.742 454.537C568.387 453.789 568.018 453.049 567.634 452.317C567.249 451.584 566.851 450.86 566.438 450.145C566.025 449.43 565.597 448.723 565.155 448.026C564.714 447.329 564.258 446.641 563.789 445.963C563.32 445.285 562.838 444.617 562.342 443.959L575.91 429.98C576.549 430.483 577.197 430.972 577.855 431.447C578.513 431.922 579.18 432.383 579.857 432.83C580.533 433.277 581.218 433.71 581.912 434.129C582.605 434.547 583.307 434.951 584.017 435.34C584.727 435.729 585.444 436.103 586.168 436.462C586.893 436.821 587.624 437.164 588.363 437.492C589.101 437.821 589.845 438.133 590.596 438.43C591.347 438.727 592.104 439.008 592.866 439.273C593.627 439.538 594.394 439.788 595.166 440.021C595.938 440.254 596.714 440.47 597.495 440.671C598.276 440.872 599.06 441.056 599.847 441.223C600.635 441.391 601.426 441.542 602.22 441.676C603.014 441.811 603.81 441.928 604.609 442.029C605.407 442.13 606.207 442.215 607.009 442.282C607.811 442.349 608.614 442.4 609.418 442.434C610.222 442.467 611.026 442.484 611.831 442.484C612.63 442.484 613.429 442.467 614.228 442.434C615.027 442.401 615.824 442.351 616.621 442.285C617.418 442.218 618.213 442.135 619.007 442.035C619.8 441.936 620.591 441.82 621.38 441.687C622.169 441.554 622.955 441.404 623.738 441.239C624.521 441.074 625.301 440.892 626.076 440.694C626.852 440.496 627.624 440.282 628.391 440.052C629.158 439.822 629.921 439.576 630.678 439.314C631.436 439.052 632.188 438.774 632.935 438.481C633.682 438.188 634.422 437.879 635.156 437.555C635.891 437.231 636.618 436.892 637.339 436.537C638.06 436.183 638.774 435.814 639.48 435.429C640.187 435.045 640.885 434.646 641.576 434.233C642.266 433.82 642.948 433.392 643.622 432.95C644.295 432.509 644.96 432.053 645.616 431.584C646.271 431.114 646.917 430.631 647.554 430.135L667.539 450.799C666.897 451.943 666.292 453.107 665.724 454.292C665.156 455.477 664.626 456.679 664.135 457.899C663.644 459.119 663.192 460.354 662.779 461.604C662.366 462.855 661.994 464.118 661.661 465.393C661.329 466.668 661.038 467.954 660.787 469.249C660.536 470.544 660.327 471.845 660.16 473.154C659.992 474.463 659.866 475.777 659.782 477.094C659.698 478.411 659.656 479.73 659.656 481.05C659.656 482.042 659.68 483.033 659.728 484.024C659.775 485.015 659.846 486.003 659.941 486.99C660.036 487.977 660.154 488.961 660.295 489.942C660.437 490.923 660.602 491.9 660.791 492.873C660.98 493.846 661.191 494.813 661.426 495.775C661.661 496.738 661.918 497.693 662.199 498.642C662.48 499.591 662.783 500.533 663.108 501.467C663.433 502.4 663.781 503.325 664.151 504.242C664.521 505.158 664.913 506.064 665.326 506.961C665.739 507.858 666.173 508.743 666.629 509.618C667.084 510.493 667.56 511.355 668.057 512.206C668.554 513.057 669.07 513.894 669.607 514.719C670.144 515.544 670.701 516.354 671.276 517.151C671.852 517.948 672.446 518.729 673.059 519.496C673.672 520.263 674.303 521.014 674.952 521.749C675.601 522.484 676.268 523.202 676.951 523.903C677.634 524.604 678.334 525.288 679.05 525.954C679.766 526.62 680.497 527.268 681.244 527.897C681.991 528.526 682.753 529.136 683.529 529.727C684.305 530.318 685.095 530.889 685.898 531.44C686.702 531.991 687.518 532.521 688.347 533.031C689.176 533.541 690.016 534.03 690.869 534.497C691.721 534.965 692.584 535.411 693.457 535.835C694.331 536.259 695.214 536.661 696.107 537.04C697 537.42 697.901 537.777 698.811 538.111C699.721 538.445 700.638 538.756 701.563 539.044C702.488 539.332 703.419 539.596 704.356 539.837C705.293 540.078 706.236 540.296 707.184 540.489C708.131 540.682 709.083 540.852 710.039 540.997C710.995 541.143 711.954 541.265 712.916 541.362C713.877 541.459 714.841 541.531 715.806 541.58C716.771 541.629 717.736 541.653 718.703 541.653C719.669 541.653 720.635 541.629 721.6 541.58C722.565 541.531 723.529 541.459 724.491 541.362C725.452 541.265 726.411 541.143 727.367 540.997C728.323 540.852 729.275 540.682 730.222 540.489C731.17 540.296 732.113 540.078 733.05 539.837C733.987 539.596 734.918 539.332 735.843 539.044C736.768 538.756 737.685 538.445 738.595 538.111C739.505 537.777 740.406 537.42 741.299 537.04C742.192 536.661 743.075 536.259 743.949 535.835C744.822 535.411 745.685 534.965 746.537 534.497C747.39 534.03 748.23 533.541 749.059 533.031C749.888 532.521 750.704 531.991 751.507 531.44C752.311 530.889 753.101 530.318 753.877 529.727C754.653 529.136 755.415 528.526 756.162 527.897C756.909 527.268 757.64 526.62 758.356 525.954C759.072 525.288 759.772 524.604 760.455 523.903C761.138 523.202 761.805 522.484 762.454 521.749C763.103 521.014 763.734 520.263 764.347 519.496C764.96 518.729 765.554 517.948 766.13 517.151C766.705 516.354 767.261 515.544 767.798 514.719C768.335 513.894 768.852 513.057 769.349 512.206C769.846 511.355 770.322 510.493 770.777 509.618C771.233 508.743 771.667 507.858 772.08 506.961C772.493 506.064 772.885 505.158 773.255 504.242C773.625 503.325 773.973 502.4 774.298 501.467C774.623 500.533 774.926 499.591 775.207 498.642C775.488 497.693 775.745 496.738 775.98 495.775C776.215 494.813 776.426 493.846 776.615 492.873C776.804 491.9 776.969 490.923 777.11 489.942C777.252 488.961 777.37 487.977 777.465 486.99C777.56 486.003 777.631 485.015 777.678 484.024C777.726 483.033 777.75 482.042 777.75 481.05C777.75 480.058 777.726 479.067 777.678 478.076C777.631 477.086 777.56 476.097 777.465 475.11C777.37 474.123 777.252 473.139 777.11 472.158C776.969 471.177 776.804 470.2 776.615 469.227C776.426 468.254 776.215 467.287 775.98 466.325C775.745 465.363 775.488 464.407 775.207 463.458C774.926 462.509 774.623 461.567 774.298 460.633C773.973 459.7 773.625 458.775 773.255 457.858C772.885 456.942 772.493 456.036 772.08 455.139C771.667 454.242 771.233 453.357 770.777 452.482C770.322 451.607 769.846 450.745 769.349 449.894C768.852 449.043 768.335 448.206 767.798 447.381C767.261 446.556 766.705 445.746 766.13 444.949C765.554 444.152 764.96 443.371 764.347 442.604C763.734 441.837 763.102 441.086 762.453 440.351C761.804 439.616 761.138 438.898 760.455 438.197C759.772 437.496 759.072 436.812 758.356 436.146C757.64 435.48 756.909 434.832 756.162 434.203C755.415 433.574 754.653 432.964 753.877 432.373C753.101 431.782 752.311 431.211 751.507 430.66C750.704 430.109 749.888 429.579 749.059 429.069C748.23 428.559 747.39 428.07 746.537 427.603C745.685 427.135 744.822 426.689 743.948 426.265C743.075 425.841 742.192 425.439 741.299 425.06C740.406 424.681 739.505 424.324 738.595 423.989C737.685 423.655 736.768 423.344 735.843 423.056C734.918 422.768 733.987 422.504 733.05 422.263C732.113 422.022 731.17 421.804 730.222 421.611C729.275 421.418 728.323 421.248 727.367 421.103C726.411 420.957 725.452 420.836 724.491 420.739C723.529 420.642 722.565 420.569 721.6 420.52C720.635 420.471 719.669 420.447 718.703 420.447C717.896 420.447 717.089 420.464 716.283 420.498C715.476 420.532 714.671 420.583 713.867 420.65C713.063 420.718 712.26 420.803 711.459 420.905C710.658 421.006 709.86 421.125 709.064 421.26C708.267 421.395 707.474 421.547 706.684 421.716C705.894 421.884 705.108 422.069 704.325 422.271C703.542 422.473 702.764 422.691 701.99 422.925C701.216 423.16 700.447 423.41 699.683 423.677C698.919 423.944 698.16 424.226 697.407 424.525C696.655 424.824 695.909 425.139 695.168 425.469C694.428 425.799 693.695 426.144 692.969 426.505C692.242 426.866 691.523 427.243 690.812 427.634C690.101 428.025 689.397 428.431 688.702 428.852C688.007 429.273 687.321 429.708 686.643 430.158C685.966 430.607 685.297 431.071 684.638 431.549C683.979 432.027 683.329 432.519 682.69 433.024L662.79 412.493C663.449 411.339 664.069 410.164 664.652 408.967C665.234 407.77 665.777 406.555 666.282 405.322C666.786 404.088 667.25 402.839 667.673 401.574C668.096 400.309 668.479 399.031 668.82 397.74C669.161 396.449 669.46 395.147 669.717 393.836C669.974 392.525 670.189 391.206 670.361 389.88C670.533 388.555 670.662 387.225 670.748 385.89C670.834 384.555 670.877 383.218 670.877 381.881C670.877 380.889 670.853 379.898 670.806 378.907C670.759 377.916 670.688 376.928 670.593 375.941C670.498 374.954 670.38 373.97 670.238 372.989C670.096 372.008 669.931 371.031 669.743 370.058C669.554 369.085 669.343 368.118 669.108 367.156C668.873 366.193 668.615 365.238 668.335 364.289C668.054 363.34 667.751 362.398 667.426 361.464C667.1 360.531 666.752 359.606 666.383 358.689C666.013 357.773 665.621 356.867 665.208 355.97C664.795 355.073 664.36 354.188 663.905 353.313C663.45 352.438 662.974 351.576 662.477 350.725C661.98 349.874 661.463 349.037 660.926 348.212C660.389 347.387 659.833 346.577 659.257 345.78C658.682 344.983 658.087 344.202 657.474 343.435C656.861 342.668 656.23 341.917 655.581 341.182C654.932 340.447 654.266 339.729 653.583 339.028C652.9 338.327 652.2 337.643 651.484 336.977C650.768 336.311 650.036 335.663 649.289 335.034C648.542 334.405 647.781 333.795 647.005 333.204C646.228 332.613 645.438 332.042 644.635 331.491C643.832 330.94 643.016 330.41 642.187 329.9C641.358 329.39 640.517 328.901 639.665 328.434C638.813 327.966 637.95 327.52 637.076 327.096C636.203 326.672 635.32 326.27 634.427 325.891C633.534 325.512 632.633 325.155 631.723 324.82C630.813 324.486 629.896 324.175 628.971 323.887C628.046 323.599 627.115 323.335 626.178 323.094C625.241 322.853 624.298 322.635 623.35 322.442C622.402 322.249 621.45 322.079 620.495 321.934C619.539 321.788 618.58 321.667 617.618 321.57C616.657 321.473 615.693 321.4 614.728 321.351C613.763 321.302 612.797 321.278 611.831 321.278C610.544 321.278 609.258 321.321 607.973 321.407C606.688 321.494 605.408 321.623 604.131 321.795C602.855 321.968 601.586 322.183 600.323 322.44C599.06 322.697 597.807 322.997 596.563 323.339C595.32 323.68 594.088 324.063 592.869 324.488C591.65 324.912 590.445 325.377 589.256 325.882C588.067 326.387 586.894 326.932 585.739 327.515C584.584 328.099 583.449 328.721 582.334 329.381L562.342 308.784C562.838 308.127 563.32 307.459 563.789 306.781C564.258 306.102 564.714 305.414 565.155 304.717C565.597 304.02 566.025 303.313 566.438 302.598C566.851 301.883 567.249 301.159 567.634 300.427C568.018 299.694 568.387 298.954 568.742 298.206C569.097 297.459 569.436 296.704 569.76 295.941C570.084 295.179 570.393 294.41 570.686 293.635C570.979 292.86 571.257 292.079 571.519 291.292C571.781 290.505 572.027 289.712 572.258 288.915C572.488 288.118 572.702 287.316 572.9 286.51C573.099 285.703 573.281 284.893 573.446 284.079C573.611 283.265 573.761 282.448 573.894 281.627C574.027 280.806 574.143 279.983 574.243 279.158C574.342 278.333 574.425 277.506 574.492 276.677C574.559 275.848 574.609 275.018 574.642 274.187C574.675 273.356 574.692 272.525 574.692 271.693C574.692 270.701 574.668 269.71 574.621 268.72C574.574 267.729 574.503 266.74 574.408 265.753C574.313 264.766 574.195 263.782 574.053 262.801C573.911 261.82 573.746 260.843 573.558 259.87C573.369 258.897 573.158 257.93 572.923 256.968C572.688 256.006 572.43 255.05 572.15 254.101C571.869 253.152 571.566 252.21 571.241 251.277C570.915 250.343 570.567 249.418 570.198 248.501C569.828 247.585 569.436 246.679 569.023 245.782C568.61 244.885 568.175 244 567.72 243.125C567.265 242.25 566.789 241.388 566.292 240.537C565.795 239.686 565.278 238.849 564.741 238.024C564.204 237.199 563.648 236.389 563.072 235.592C562.497 234.795 561.902 234.014 561.289 233.247C560.676 232.48 560.045 231.729 559.396 230.994C558.747 230.259 558.081 229.541 557.398 228.84C556.715 228.139 556.015 227.455 555.299 226.789C554.583 226.123 553.851 225.475 553.104 224.846C552.357 224.217 551.596 223.607 550.82 223.016C550.043 222.425 549.253 221.854 548.45 221.303C547.647 220.752 546.831 220.222 546.002 219.712C545.173 219.202 544.332 218.713 543.48 218.246C542.628 217.778 541.765 217.332 540.891 216.908C540.018 216.484 539.135 216.082 538.242 215.703C537.349 215.324 536.448 214.967 535.538 214.632C534.628 214.298 533.711 213.987 532.786 213.699C531.861 213.412 530.93 213.147 529.993 212.906C529.056 212.665 528.113 212.448 527.165 212.254C526.217 212.061 525.265 211.891 524.31 211.746C523.354 211.6 522.395 211.479 521.433 211.382C520.472 211.285 519.508 211.212 518.543 211.163C517.578 211.114 516.612 211.09 515.646 211.09C514.679 211.09 513.714 211.114 512.749 211.163C511.784 211.212 510.82 211.285 509.858 211.382C508.897 211.479 507.938 211.6 506.982 211.746C506.026 211.891 505.074 212.061 504.126 212.254C503.179 212.448 502.236 212.665 501.299 212.906C500.361 213.147 499.43 213.412 498.505 213.699C497.58 213.987 496.663 214.298 495.754 214.632C494.844 214.967 493.943 215.324 493.05 215.703C492.157 216.082 491.273 216.484 490.4 216.908C489.527 217.332 488.664 217.778 487.811 218.246C486.959 218.713 486.119 219.202 485.29 219.712C484.461 220.222 483.644 220.752 482.841 221.303C482.038 221.854 481.248 222.425 480.472 223.016C479.695 223.607 478.934 224.217 478.187 224.846C477.44 225.475 476.709 226.123 475.993 226.789C475.277 227.455 474.577 228.139 473.894 228.84C473.211 229.541 472.544 230.259 471.895 230.994C471.246 231.729 470.615 232.48 470.002 233.247C469.389 234.014 468.795 234.795 468.219 235.592C467.644 236.389 467.087 237.199 466.55 238.024C466.013 238.849 465.497 239.686 465 240.537C464.503 241.388 464.027 242.25 463.571 243.125C463.116 244 462.681 244.885 462.268 245.782C461.855 246.679 461.464 247.585 461.094 248.501C460.724 249.418 460.376 250.343 460.051 251.277C459.726 252.21 459.423 253.152 459.142 254.101C458.861 255.05 458.604 256.006 458.369 256.968C458.134 257.93 457.923 258.897 457.734 259.87C457.545 260.843 457.38 261.82 457.238 262.801C457.097 263.782 456.979 264.766 456.884 265.753C456.789 266.74 456.718 267.729 456.67 268.72C456.623 269.71 456.599 270.701 456.599 271.693ZM515.646 332.297C516.921 332.296 518.194 332.254 519.466 332.17C520.738 332.085 522.006 331.958 523.271 331.789C524.535 331.62 525.792 331.41 527.043 331.157C528.294 330.904 529.535 330.61 530.768 330.275C532 329.94 533.22 329.565 534.429 329.148C535.638 328.732 536.832 328.276 538.012 327.781C539.192 327.285 540.355 326.751 541.501 326.178C542.647 325.605 543.774 324.994 544.882 324.346L564.944 345.045C564.455 345.7 563.98 346.365 563.518 347.04C563.056 347.715 562.607 348.399 562.172 349.093C561.737 349.787 561.317 350.49 560.91 351.201C560.503 351.912 560.11 352.632 559.732 353.36C559.353 354.088 558.99 354.824 558.641 355.567C558.292 356.31 557.958 357.06 557.639 357.817C557.32 358.574 557.016 359.338 556.727 360.108C556.438 360.877 556.165 361.653 555.907 362.435C555.649 363.216 555.407 364.003 555.18 364.794C554.953 365.585 554.742 366.381 554.547 367.182C554.352 367.982 554.174 368.786 554.011 369.594C553.848 370.402 553.701 371.213 553.57 372.027C553.439 372.841 553.325 373.657 553.227 374.476C553.128 375.295 553.046 376.115 552.981 376.937C552.916 377.76 552.866 378.583 552.833 379.407C552.8 380.232 552.784 381.056 552.784 381.881C552.784 383.2 552.826 384.519 552.91 385.836C552.994 387.153 553.12 388.465 553.287 389.773C553.454 391.082 553.663 392.383 553.914 393.677C554.164 394.972 554.455 396.256 554.787 397.531C555.119 398.806 555.491 400.068 555.903 401.318C556.316 402.568 556.767 403.803 557.258 405.022C557.749 406.241 558.279 407.443 558.846 408.628C559.413 409.812 560.018 410.976 560.659 412.119L544.882 428.397C543.774 427.749 542.647 427.139 541.501 426.566C540.355 425.993 539.192 425.458 538.012 424.963C536.832 424.467 535.638 424.011 534.429 423.595C533.22 423.179 532 422.803 530.768 422.468C529.536 422.133 528.294 421.839 527.043 421.587C525.792 421.334 524.535 421.123 523.271 420.954C522.006 420.785 520.738 420.659 519.466 420.574C518.194 420.489 516.921 420.447 515.646 420.447C514.847 420.447 514.049 420.464 513.252 420.497C512.455 420.53 511.658 420.579 510.862 420.646C510.067 420.713 509.273 420.796 508.48 420.895C507.688 420.994 506.898 421.11 506.11 421.242C505.323 421.375 504.538 421.523 503.756 421.688C502.974 421.853 502.196 422.035 501.421 422.232C500.646 422.429 499.876 422.643 499.109 422.872C498.343 423.101 497.582 423.347 496.825 423.608C496.068 423.869 495.317 424.145 494.572 424.438C493.826 424.731 493.086 425.039 492.353 425.362C491.62 425.685 490.893 426.023 490.172 426.377C489.452 426.73 488.739 427.098 488.034 427.481C487.328 427.864 486.63 428.262 485.941 428.674C485.251 429.087 484.569 429.513 483.896 429.953C483.223 430.394 482.559 430.848 481.904 431.316C481.249 431.785 480.604 432.266 479.968 432.761L459.957 412.098C460.597 410.955 461.2 409.792 461.767 408.609C462.334 407.426 462.862 406.225 463.353 405.006C463.843 403.787 464.294 402.553 464.705 401.304C465.117 400.055 465.489 398.793 465.82 397.519C466.152 396.245 466.443 394.961 466.692 393.668C466.942 392.375 467.151 391.074 467.318 389.767C467.485 388.46 467.611 387.148 467.694 385.833C467.778 384.517 467.82 383.2 467.82 381.881C467.82 381.056 467.804 380.232 467.771 379.409C467.738 378.585 467.689 377.762 467.623 376.941C467.558 376.119 467.476 375.299 467.378 374.481C467.28 373.662 467.166 372.846 467.035 372.033C466.904 371.22 466.758 370.409 466.595 369.602C466.432 368.795 466.254 367.991 466.059 367.191C465.864 366.391 465.654 365.596 465.428 364.805C465.201 364.014 464.959 363.228 464.702 362.447C464.444 361.666 464.171 360.89 463.883 360.121C463.594 359.352 463.291 358.589 462.972 357.832C462.653 357.075 462.32 356.326 461.971 355.583C461.622 354.84 461.259 354.104 460.881 353.377C460.504 352.65 460.112 351.93 459.705 351.219C459.298 350.508 458.878 349.805 458.444 349.112C458.009 348.419 457.561 347.735 457.1 347.06C456.639 346.385 456.164 345.72 455.676 345.065L479.968 319.982C480.604 320.477 481.249 320.959 481.904 321.427C482.559 321.895 483.223 322.349 483.896 322.79C484.569 323.231 485.251 323.657 485.941 324.069C486.63 324.481 487.328 324.879 488.034 325.262C488.739 325.645 489.452 326.014 490.172 326.367C490.893 326.72 491.62 327.059 492.353 327.382C493.086 327.705 493.826 328.013 494.572 328.305C495.317 328.598 496.068 328.874 496.825 329.135C497.582 329.396 498.343 329.642 499.109 329.871C499.876 330.101 500.646 330.315 501.421 330.512C502.196 330.709 502.974 330.89 503.756 331.055C504.538 331.22 505.323 331.369 506.11 331.501C506.898 331.633 507.688 331.749 508.48 331.849C509.273 331.948 510.067 332.031 510.862 332.097C511.658 332.164 512.455 332.214 513.252 332.247C514.049 332.28 514.847 332.296 515.646 332.297Z" fill="#FF6600"/>
</g>
</g>
<defs>
<clipPath id="clip0_2_2">
<rect width="1024" height="1024" fill="white"/>
</clipPath>
</defs>
</svg>
